
<svg id="visual" viewBox="0 0 900 600" width="900" height="600" xmlns="http://www.w3.org/2000/svg" xmlns:xlink="http://www.w3.org/1999/xlink" version="1.1"><rect x="0" y="0" width="900" height="600" fill="#002233"></rect><path d="M0 438L21.5 424.7C43 411.3 86 384.7 128.8 367.3C171.7 350 214.3 342 257.2 353.8C300 365.7 343 397.3 385.8 414.2C428.7 431 471.3 433 514.2 421.8C557 410.7 600 386.3 642.8 399.2C685.7 412 728.3 462 771.2 468.7C814 475.3 857 438.7 878.5 420.3L900 402L900 601L878.5 601C857 601 814 601 771.2 601C728.3 601 685.7 601 642.8 601C600 601 557 601 514.2 601C471.3 601 428.7 601 385.8 601C343 601 300 601 257.2 601C214.3 601 171.7 601 128.8 601C86 601 43 601 21.5 601L0 601Z" fill="#0349a8" stroke-linecap="round" stroke-linejoin="miter"></path></svg>