<svg id="visual" viewBox="0 0 900 600" width="900" height="600" xmlns="http://www.w3.org/2000/svg" xmlns:xlink="http://www.w3.org/1999/xlink" version="1.1"><rect x="0" y="0" width="900" height="600" fill="#ffffff"></rect><path d="M0 309L21.5 329C43 349 86 389 128.8 397.7C171.7 406.3 214.3 383.7 257.2 383.5C300 383.3 343 405.7 385.8 414.3C428.7 423 471.3 418 514.2 415.2C557 412.3 600 411.7 642.8 405.3C685.7 399 728.3 387 771.2 367C814 347 857 319 878.5 305L900 291L900 601L878.5 601C857 601 814 601 771.2 601C728.3 601 685.7 601 642.8 601C600 601 557 601 514.2 601C471.3 601 428.7 601 385.8 601C343 601 300 601 257.2 601C214.3 601 171.7 601 128.8 601C86 601 43 601 21.5 601L0 601Z" fill="#007de3" stroke-linecap="round" stroke-linejoin="miter"></path></svg>